<?xml version="1.0" encoding="UTF-8" standalone="no"?>
<svg
   version="1.1"
   width="5001"
   height="5001"
   id="svg110"
   sodipodi:docname="placeholder.svg"
   inkscape:export-filename="placeholder.svg"
   inkscape:export-xdpi="96"
   inkscape:export-ydpi="96"
   xml:space="preserve"
   xmlns:inkscape="http://www.inkscape.org/namespaces/inkscape"
   xmlns:sodipodi="http://sodipodi.sourceforge.net/DTD/sodipodi-0.dtd"
   xmlns="http://www.w3.org/2000/svg"
   xmlns:svg="http://www.w3.org/2000/svg"><defs
     id="defs110" /><sodipodi:namedview
     id="namedview110"
     pagecolor="#ffffff"
     bordercolor="#999999"
     borderopacity="1"
     inkscape:showpageshadow="0"
     inkscape:pageopacity="0"
     inkscape:pagecheckerboard="0"
     inkscape:deskcolor="#d1d1d1"
     inkscape:export-bgcolor="#ffffff00"><inkscape:page
       x="0"
       y="0"
       width="5001"
       height="5001"
       id="page2"
       margin="0"
       bleed="0" /></sodipodi:namedview><path
     style="display:inline;fill:#933334;fill-opacity:1;stroke:none;stroke-width:17.7983"
     d="m 2190.9268,4737.2627 c -19.578,-4.8091 -143.7213,-59.756 -275.8736,-122.1016 -269.872,-127.3183 -257.4613,-113.1438 -321.0439,-366.6628 -63.5292,-253.3054 -182.7352,-401.5243 -418.7585,-520.6785 -262.33796,-132.4408 -328.23433,-289.6337 -226.74851,-540.8974 52.16501,-129.1552 64.22701,-487.6913 20.93972,-622.4726 -25.94098,-80.7685 -10.44043,-129.2636 101.41469,-317.2901 96.6679,-162.5003 96.6679,-162.5003 96.9724,-382.6636 0.427,-306.3175 81.251,-620.9808 188.7953,-734.9985 35.1872,-37.3051 83.3441,-110.1324 107.0177,-161.83989 23.6718,-51.7077 55.6446,-104.4742 71.0491,-117.25875 15.4044,-12.78454 54.2526,-63.63786 86.3288,-113.00859 238.2676,-366.71797 919.0027,-607.72825 1186.901,-420.21239 62.0038,43.4011 221.0548,153.10095 353.4439,243.77962 398.5252,272.96549 538.4804,450.8452 570.5831,725.1918 63.3389,541.3067 120.0584,736.9492 248.322,856.5361 134.6191,125.5116 158.4404,281.06 61.6248,402.4069 -87.274,109.3867 -99.6651,164.209 -110.1893,487.5079 -11.9924,368.3661 -79.5548,549.4264 -225.8658,605.3024 -158.1734,60.4075 -384.34,370.1209 -385.3011,527.636 -2.1447,350.9325 -243.0802,520.431 -732.3324,515.1931 -98.3142,-1.0501 -171.3797,9.207 -241.772,33.9485 -55.4827,19.5015 -105.1613,34.5269 -110.3939,33.3914 -5.2346,-1.1393 -25.5354,-6 -45.1135,-10.809 z m 194.0888,-707.9576 c 79.2772,-53.7989 106.9517,-55.2833 165.9192,-8.8992 243.9489,191.8906 505.3597,-344.3543 305.175,-626.0159 -47.1441,-66.3325 -245.2267,-133.0121 -303.8169,-102.2744 -133.3235,69.9472 -185.485,133.7078 -300.9872,367.9228 -133.375,270.4594 -51.9727,495.2733 133.7099,369.2667 z m -478.8615,-862.0873 c 261.6901,-113.7916 432.52,-446.5504 296.2652,-577.0903 -141.7227,-135.7798 -1070.4913,-29.6342 -1070.4913,122.3419 0,46.2168 105.7522,316.1815 137.6751,351.4559 116.7267,128.9826 452.2602,183.4293 636.551,103.2925 z m 1749.8165,-61.7102 c 51.2609,-26.5071 199.0972,-324.8706 199.0972,-401.8198 0,-56.9456 32.2541,-106.756 81.1745,-125.3552 61.1442,-23.2482 54.4023,-45.2308 -31.1843,-101.6763 -97.1308,-64.0597 -607.2959,-71.8607 -710.4495,-10.8641 -182.1709,107.7187 -241.6528,476.0884 -93.7739,580.7406 117.4225,83.0986 441.8392,117.5632 555.136,58.9748 z" /></svg>
